<?xml version="1.0" standalone="no"?>
<!DOCTYPE svg PUBLIC "-//W3C//DTD SVG 20010904//EN"
 "http://www.w3.org/TR/2001/REC-SVG-20010904/DTD/svg10.dtd">
<svg version="1.0" xmlns="http://www.w3.org/2000/svg"
 width="497.000000pt" height="103.000000pt" viewBox="0 0 497.000000 103.000000"
 preserveAspectRatio="xMidYMid meet">

<g transform="translate(0.000000,103.000000) scale(0.100000,-0.100000)"
fill="#000000" stroke="none">
<path d="M2738 981 c-107 -35 -158 -128 -158 -293 l0 -78 -65 0 -65 0 0 100 0
100 -90 0 -90 0 0 -100 0 -100 -40 0 c-39 0 -40 -1 -40 -36 l0 -35 -33 25
c-56 43 -107 59 -187 60 -63 1 -84 -4 -132 -27 -173 -85 -220 -291 -98 -430
60 -68 131 -99 225 -99 44 1 97 8 127 18 53 17 138 85 138 110 0 8 -27 28 -61
45 l-61 30 -22 -20 c-47 -44 -121 -53 -174 -21 -29 18 -52 54 -52 81 0 5 81 9
196 9 l197 0 -6 53 c-4 28 -9 62 -13 75 -5 18 -2 22 15 22 20 0 21 -4 21 -133
0 -118 3 -138 23 -177 39 -78 107 -106 209 -88 29 5 99 9 156 8 l102 -1 0 195
0 196 40 0 40 0 0 -195 0 -195 90 0 90 0 0 93 1 92 21 -40 c36 -70 100 -122
180 -146 52 -16 182 -13 237 6 60 20 134 83 164 139 31 58 31 184 0 242 -30
57 -104 119 -166 140 -61 21 -174 23 -234 6 -66 -19 -134 -73 -170 -132 l-33
-54 0 271 0 270 -92 7 c-51 3 -109 8 -128 11 -19 2 -47 0 -62 -4z m102 -266
l0 -105 -41 0 -42 0 5 90 c6 96 17 120 54 120 24 0 24 -1 24 -105z m-821 -219
c22 -12 51 -52 51 -71 0 -3 -45 -5 -100 -5 -90 0 -100 2 -100 18 0 19 34 55
60 65 27 10 61 7 89 -7z m560 -198 l-1 -173 -19 57 c-20 56 -20 57 -54 51 -31
-5 -36 -2 -45 21 -5 15 -10 70 -10 122 l0 94 65 0 65 0 -1 -172z m822 149 c46
-31 65 -88 47 -142 -43 -131 -238 -98 -238 40 0 100 108 158 191 102z"/>
<path d="M1140 781 l0 -190 -37 16 c-57 24 -177 22 -233 -3 -60 -27 -107 -69
-142 -123 l-28 -45 0 87 0 87 -145 0 -145 0 0 100 0 100 -90 0 -90 0 0 -100 0
-100 -40 0 -41 0 3 -67 3 -68 38 -3 37 -3 0 -118 c0 -168 23 -232 96 -269 27
-14 65 -15 237 -6 l137 7 0 85 0 86 28 -45 c35 -54 83 -96 141 -122 54 -24
167 -26 229 -3 23 8 42 11 42 6 0 -6 39 -10 90 -10 l90 0 0 107 0 108 108
-108 107 -107 120 0 120 0 -140 140 -140 140 125 125 125 125 -120 0 -120 0
-92 -92 -93 -93 0 273 0 272 -90 0 -90 0 0 -189z m0 -438 l-1 -178 -20 38
c-17 33 -22 36 -40 26 -12 -6 -41 -11 -65 -11 -77 0 -127 51 -127 128 0 53 24
91 74 117 36 19 100 17 126 -4 9 -8 17 -2 30 25 9 20 18 36 20 36 2 0 3 -80 3
-177z m-630 9 l0 -118 -37 1 c-51 0 -63 26 -63 143 l0 92 50 0 50 0 0 -118z"/>
<path d="M564 930 c-56 -22 -83 -109 -48 -158 62 -89 195 -47 194 61 -1 79
-73 127 -146 97z"/>
<path d="M3563 598 c3 -7 65 -125 139 -263 l135 -250 64 -3 64 -2 59 136 60
136 23 -48 c13 -27 41 -89 63 -137 l40 -88 62 3 63 3 137 255 c76 140 138 258
138 263 0 4 -46 7 -102 7 l-103 0 -59 -133 c-33 -72 -62 -135 -66 -140 -3 -4
-33 55 -67 130 l-60 138 -65 3 -65 3 -63 -141 c-34 -77 -64 -140 -65 -140 -1
0 -31 63 -65 140 l-63 140 -105 0 c-79 0 -103 -3 -99 -12z"/>
<path d="M4606 270 c-40 -36 -52 -76 -36 -125 16 -50 53 -75 109 -75 53 0 84
18 106 60 19 37 19 64 0 104 -33 70 -120 87 -179 36z"/>
</g>
</svg>
